# xmcd CD database file
#
# Track frame offsets:
#	150
#	13586
#	33655
#	50473
#	64867
#	80162
#	98586
#	113967
#	128619
#	147890
#	162210
#
# Disc length: 2511 seconds
#
# Revision: 1
# Processed by: cddbd v1.5.2PL0 Copyright (c) Steve Scherf et al.
# Submitted via: CDex 1.79
#
DISCID=8f09cd0b
DTITLE=Jamey Johnson - The Dollar
DYEAR=2006
DGENRE=Country
TTITLE0=The Dollar
TTITLE1=Flying Silver Eagle
TTITLE2=She's All Lady
TTITLE3=Ray Ray's Juke Joint
TTITLE4=My Saving Grace
TTITLE5=Redneck Side Of Me
TTITLE6=Keeping Up With The Jonesin' (featuring George Jones)
TTITLE7=Rebelicious
TTITLE8=Back To Caroline
TTITLE9=It Was Me
TTITLE10=Lead Me Home
EXTD=YEAR: 2006
EXTT0=
EXTT1=
EXTT2=
EXTT3=
EXTT4=
EXTT5=
EXTT6=
EXTT7=
EXTT8=
EXTT9=
EXTT10=
PLAYORDER=
